<svg id="visual" viewBox="0 0 960 540" width="960" height="540" xmlns="http://www.w3.org/2000/svg" xmlns:xlink="http://www.w3.org/1999/xlink" version="1.1"><rect width="960" height="540" fill="#121416"></rect><g><g transform="translate(565 423)"><path d="M0 -15.2L15.2 0L0 15.2L-15.2 0Z" fill="#1e2124"></path></g><g transform="translate(878 341)"><path d="M0 -2L2 0L0 2L-2 0Z" fill="#1e2124"></path></g><g transform="translate(822 454)"><path d="M0 -5L5 0L0 5L-5 0Z" fill="#1e2124"></path></g><g transform="translate(742 456)"><path d="M0 -7L7 0L0 7L-7 0Z" fill="#1e2124"></path></g><g transform="translate(943 134)"><path d="M0 -4L4 0L0 4L-4 0Z" fill="#1e2124"></path></g><g transform="translate(228 532)"><path d="M0 -13L13 0L0 13L-13 0Z" fill="#1e2124"></path></g><g transform="translate(340 398)"><path d="M0 -9L9 0L0 9L-9 0Z" fill="#1e2124"></path></g><g transform="translate(367 66)"><path d="M0 -13L13 0L0 13L-13 0Z" fill="#1e2124"></path></g><g transform="translate(281 267)"><path d="M0 -3L3 0L0 3L-3 0Z" fill="#1e2124"></path></g><g transform="translate(614 34)"><path d="M0 -10L10 0L0 10L-10 0Z" fill="#1e2124"></path></g><g transform="translate(925 54)"><path d="M0 -12L12 0L0 12L-12 0Z" fill="#1e2124"></path></g><g transform="translate(707 136)"><path d="M0 -8L8 0L0 8L-8 0Z" fill="#1e2124"></path></g><g transform="translate(439 115)"><path d="M0 -4L4 0L0 4L-4 0Z" fill="#1e2124"></path></g><g transform="translate(584 302)"><path d="M0 -7L7 0L0 7L-7 0Z" fill="#1e2124"></path></g><g transform="translate(623 196)"><path d="M0 -3L3 0L0 3L-3 0Z" fill="#1e2124"></path></g><g transform="translate(919 417)"><path d="M0 -3L3 0L0 3L-3 0Z" fill="#1e2124"></path></g><g transform="translate(715 339)"><path d="M0 -2L2 0L0 2L-2 0Z" fill="#1e2124"></path></g><g transform="translate(305 496)"><path d="M0 -3L3 0L0 3L-3 0Z" fill="#1e2124"></path></g><g transform="translate(279 455)"><path d="M0 -10L10 0L0 10L-10 0Z" fill="#1e2124"></path></g><g transform="translate(308 8)"><path d="M0 -2L2 0L0 2L-2 0Z" fill="#1e2124"></path></g><g transform="translate(456 227)"><path d="M0 -9L9 0L0 9L-9 0Z" fill="#1e2124"></path></g><g transform="translate(520 103)"><path d="M0 -12L12 0L0 12L-12 0Z" fill="#1e2124"></path></g><g transform="translate(198 109)"><path d="M0 -1L1 0L0 1L-1 0Z" fill="#1e2124"></path></g><g transform="translate(400 346)"><path d="M0 -9L9 0L0 9L-9 0Z" fill="#1e2124"></path></g><g transform="translate(386 127)"><path d="M0 -10L10 0L0 10L-10 0Z" fill="#1e2124"></path></g><g transform="translate(579 459)"><path d="M0 -9L9 0L0 9L-9 0Z" fill="#1e2124"></path></g><g transform="translate(922 353)"><path d="M0 -3L3 0L0 3L-3 0Z" fill="#1e2124"></path></g><g transform="translate(445 47)"><path d="M0 -10L10 0L0 10L-10 0Z" fill="#1e2124"></path></g><g transform="translate(398 463)"><path d="M0 -9L9 0L0 9L-9 0Z" fill="#1e2124"></path></g><g transform="translate(908 200)"><path d="M0 -6L6 0L0 6L-6 0Z" fill="#1e2124"></path></g><g transform="translate(116 62)"><path d="M0 -5L5 0L0 5L-5 0Z" fill="#1e2124"></path></g><g transform="translate(365 291)"><path d="M0 -11L11 0L0 11L-11 0Z" fill="#1e2124"></path></g><g transform="translate(266 528)"><path d="M0 -14L14 0L0 14L-14 0Z" fill="#1e2124"></path></g><g transform="translate(875 311)"><path d="M0 -1L1 0L0 1L-1 0Z" fill="#1e2124"></path></g><g transform="translate(65 412)"><path d="M0 -1L1 0L0 1L-1 0Z" fill="#1e2124"></path></g><g transform="translate(453 453)"><path d="M0 -12L12 0L0 12L-12 0Z" fill="#1e2124"></path></g><g transform="translate(695 370)"><path d="M0 -5L5 0L0 5L-5 0Z" fill="#1e2124"></path></g><g transform="translate(95 404)"><path d="M0 -13L13 0L0 13L-13 0Z" fill="#1e2124"></path></g><g transform="translate(485 120)"><path d="M0 -11L11 0L0 11L-11 0Z" fill="#1e2124"></path></g><g transform="translate(81 192)"><path d="M0 -7L7 0L0 7L-7 0Z" fill="#1e2124"></path></g><g transform="translate(786 132)"><path d="M0 -9L9 0L0 9L-9 0Z" fill="#1e2124"></path></g><g transform="translate(45 277)"><path d="M0 -9L9 0L0 9L-9 0Z" fill="#1e2124"></path></g><g transform="translate(346 518)"><path d="M0 -13L13 0L0 13L-13 0Z" fill="#1e2124"></path></g><g transform="translate(522 34)"><path d="M0 -9L9 0L0 9L-9 0Z" fill="#1e2124"></path></g><g transform="translate(195 179)"><path d="M0 -6L6 0L0 6L-6 0Z" fill="#1e2124"></path></g><g transform="translate(642 307)"><path d="M0 -7L7 0L0 7L-7 0Z" fill="#1e2124"></path></g><g transform="translate(287 321)"><path d="M0 -14L14 0L0 14L-14 0Z" fill="#1e2124"></path></g><g transform="translate(448 411)"><path d="M0 -10L10 0L0 10L-10 0Z" fill="#1e2124"></path></g><g transform="translate(233 100)"><path d="M0 -2L2 0L0 2L-2 0Z" fill="#1e2124"></path></g><g transform="translate(786 300)"><path d="M0 -4L4 0L0 4L-4 0Z" fill="#1e2124"></path></g><g transform="translate(843 216)"><path d="M0 -3L3 0L0 3L-3 0Z" fill="#1e2124"></path></g><g transform="translate(103 437)"><path d="M0 -13L13 0L0 13L-13 0Z" fill="#1e2124"></path></g><g transform="translate(298 360)"><path d="M0 -4L4 0L0 4L-4 0Z" fill="#1e2124"></path></g><g transform="translate(447 186)"><path d="M0 -4L4 0L0 4L-4 0Z" fill="#1e2124"></path></g><g transform="translate(259 212)"><path d="M0 -10L10 0L0 10L-10 0Z" fill="#1e2124"></path></g><g transform="translate(23 134)"><path d="M0 -11L11 0L0 11L-11 0Z" fill="#1e2124"></path></g><g transform="translate(825 309)"><path d="M0 -9L9 0L0 9L-9 0Z" fill="#1e2124"></path></g><g transform="translate(561 252)"><path d="M0 -6L6 0L0 6L-6 0Z" fill="#1e2124"></path></g><g transform="translate(910 485)"><path d="M0 -10L10 0L0 10L-10 0Z" fill="#1e2124"></path></g><g transform="translate(489 506)"><path d="M0 -4L4 0L0 4L-4 0Z" fill="#1e2124"></path></g><g transform="translate(211 304)"><path d="M0 -1L1 0L0 1L-1 0Z" fill="#1e2124"></path></g><g transform="translate(830 279)"><path d="M0 -10L10 0L0 10L-10 0Z" fill="#1e2124"></path></g><g transform="translate(417 383)"><path d="M0 -7L7 0L0 7L-7 0Z" fill="#1e2124"></path></g><g transform="translate(610 411)"><path d="M0 -4L4 0L0 4L-4 0Z" fill="#1e2124"></path></g><g transform="translate(756 203)"><path d="M0 -7L7 0L0 7L-7 0Z" fill="#1e2124"></path></g><g transform="translate(129 265)"><path d="M0 -12L12 0L0 12L-12 0Z" fill="#1e2124"></path></g><g transform="translate(144 430)"><path d="M0 -4L4 0L0 4L-4 0Z" fill="#1e2124"></path></g><g transform="translate(754 89)"><path d="M0 -13L13 0L0 13L-13 0Z" fill="#1e2124"></path></g><g transform="translate(75 506)"><path d="M0 -13L13 0L0 13L-13 0Z" fill="#1e2124"></path></g><g transform="translate(539 322)"><path d="M0 -4L4 0L0 4L-4 0Z" fill="#1e2124"></path></g><g transform="translate(495 70)"><path d="M0 -10L10 0L0 10L-10 0Z" fill="#1e2124"></path></g><g transform="translate(891 524)"><path d="M0 -6L6 0L0 6L-6 0Z" fill="#1e2124"></path></g><g transform="translate(327 240)"><path d="M0 -4L4 0L0 4L-4 0Z" fill="#1e2124"></path></g><g transform="translate(379 432)"><path d="M0 -2L2 0L0 2L-2 0Z" fill="#1e2124"></path></g><g transform="translate(347 456)"><path d="M0 -10L10 0L0 10L-10 0Z" fill="#1e2124"></path></g><g transform="translate(847 71)"><path d="M0 -4L4 0L0 4L-4 0Z" fill="#1e2124"></path></g><g transform="translate(703 4)"><path d="M0 -2L2 0L0 2L-2 0Z" fill="#1e2124"></path></g><g transform="translate(625 66)"><path d="M0 -1L1 0L0 1L-1 0Z" fill="#1e2124"></path></g><g transform="translate(901 79)"><path d="M0 -6L6 0L0 6L-6 0Z" fill="#1e2124"></path></g><g transform="translate(368 203)"><path d="M0 -12L12 0L0 12L-12 0Z" fill="#1e2124"></path></g><g transform="translate(312 419)"><path d="M0 -4L4 0L0 4L-4 0Z" fill="#1e2124"></path></g><g transform="translate(149 157)"><path d="M0 -4L4 0L0 4L-4 0Z" fill="#1e2124"></path></g><g transform="translate(239 143)"><path d="M0 -2L2 0L0 2L-2 0Z" fill="#1e2124"></path></g><g transform="translate(738 155)"><path d="M0 -4L4 0L0 4L-4 0Z" fill="#1e2124"></path></g></g></svg>