<svg xmlns="http://www.w3.org/2000/svg" xmlns:xlink="http://www.w3.org/1999/xlink" width="100" zoomAndPan="magnify" viewBox="0 0 75 74.999997" height="100" preserveAspectRatio="xMidYMid meet" version="1.0"><defs><clipPath id="0549ca8513"><path d="M 2.761719 3.425781 L 68.761719 3.425781 L 68.761719 69.425781 L 2.761719 69.425781 Z M 2.761719 3.425781 " clip-rule="nonzero"/></clipPath><clipPath id="ed4affd065"><path d="M 24.179688 23.515625 L 72.179688 23.515625 L 72.179688 71.515625 L 24.179688 71.515625 Z M 24.179688 23.515625 " clip-rule="nonzero"/></clipPath></defs><g clip-path="url(#0549ca8513)"><path fill="#cb6ce6" d="M 68.75 36.421875 C 65.199219 35.871094 62.453125 35.390625 60.101562 34.910156 C 57.425781 34.367188 55.199219 33.808594 53.296875 33.199219 C 51.253906 32.550781 49.539062 31.835938 48.050781 31.015625 C 46.519531 30.171875 45.226562 29.210938 44.101562 28.082031 C 42.972656 26.957031 42.015625 25.664062 41.167969 24.132812 C 40.347656 22.644531 39.632812 20.929688 38.984375 18.886719 C 38.375 16.984375 37.816406 14.753906 37.273438 12.082031 C 36.792969 9.730469 36.3125 6.984375 35.761719 3.433594 L 35.761719 3.425781 L 35.757812 3.433594 C 35.207031 6.984375 34.730469 9.730469 34.25 12.082031 C 33.703125 14.757812 33.144531 16.984375 32.539062 18.886719 C 31.890625 20.929688 31.171875 22.644531 30.351562 24.132812 C 29.507812 25.664062 28.546875 26.957031 27.421875 28.082031 C 26.292969 29.210938 25 30.171875 23.46875 31.015625 C 21.984375 31.835938 20.265625 32.550781 18.226562 33.199219 C 16.320312 33.808594 14.09375 34.367188 11.417969 34.910156 C 9.070312 35.390625 6.320312 35.871094 2.773438 36.421875 L 2.761719 36.421875 L 2.773438 36.425781 C 6.320312 36.976562 9.066406 37.457031 11.417969 37.933594 C 14.09375 38.480469 16.320312 39.039062 18.226562 39.644531 C 20.265625 40.292969 21.984375 41.007812 23.46875 41.832031 C 25 42.675781 26.292969 43.632812 27.421875 44.761719 C 28.546875 45.890625 29.507812 47.183594 30.351562 48.714844 C 31.175781 50.203125 31.890625 51.917969 32.539062 53.957031 C 33.144531 55.863281 33.703125 58.089844 34.25 60.765625 C 34.726562 63.117188 35.207031 65.863281 35.757812 69.410156 L 35.761719 69.421875 L 35.761719 69.410156 C 36.3125 65.863281 36.792969 63.117188 37.273438 60.765625 C 37.816406 58.089844 38.375 55.863281 38.984375 53.957031 C 39.632812 51.917969 40.347656 50.203125 41.167969 48.714844 C 42.015625 47.183594 42.972656 45.890625 44.101562 44.761719 C 45.226562 43.636719 46.519531 42.675781 48.050781 41.832031 C 49.539062 41.007812 51.253906 40.292969 53.296875 39.644531 C 55.199219 39.039062 57.429688 38.480469 60.101562 37.933594 C 62.453125 37.457031 65.199219 36.976562 68.75 36.425781 L 68.761719 36.421875 Z M 68.75 36.421875 " fill-opacity="1" fill-rule="nonzero"/></g><g clip-path="url(#ed4affd065)"><path fill="#8c52ff" d="M 72.167969 47.515625 C 69.589844 47.113281 67.589844 46.765625 65.882812 46.417969 C 63.9375 46.019531 62.316406 45.613281 60.929688 45.171875 C 59.445312 44.699219 58.199219 44.179688 57.117188 43.582031 C 56.003906 42.96875 55.0625 42.269531 54.242188 41.449219 C 53.421875 40.632812 52.726562 39.691406 52.109375 38.578125 C 51.515625 37.496094 50.996094 36.25 50.523438 34.761719 C 50.082031 33.378906 49.675781 31.757812 49.277344 29.8125 C 48.929688 28.101562 48.582031 26.105469 48.179688 23.523438 L 48.179688 23.515625 L 48.175781 23.523438 C 47.777344 26.105469 47.425781 28.101562 47.078125 29.8125 C 46.683594 31.757812 46.277344 33.378906 45.835938 34.761719 C 45.363281 36.25 44.84375 37.496094 44.246094 38.578125 C 43.628906 39.691406 42.933594 40.628906 42.113281 41.449219 C 41.292969 42.269531 40.351562 42.96875 39.238281 43.582031 C 38.15625 44.179688 36.910156 44.699219 35.425781 45.171875 C 34.039062 45.613281 32.421875 46.019531 30.476562 46.417969 C 28.765625 46.765625 26.769531 47.113281 24.1875 47.515625 L 24.179688 47.515625 L 24.1875 47.515625 C 26.765625 47.917969 28.765625 48.265625 30.476562 48.613281 C 32.421875 49.011719 34.039062 49.417969 35.425781 49.859375 C 36.910156 50.332031 38.15625 50.851562 39.238281 51.449219 C 40.351562 52.0625 41.292969 52.761719 42.113281 53.582031 C 42.933594 54.402344 43.628906 55.339844 44.246094 56.453125 C 44.84375 57.535156 45.363281 58.785156 45.835938 60.269531 C 46.277344 61.65625 46.683594 63.273438 47.078125 65.21875 C 47.425781 66.929688 47.777344 68.925781 48.175781 71.507812 L 48.179688 71.515625 L 48.179688 71.507812 C 48.582031 68.925781 48.929688 66.929688 49.277344 65.21875 C 49.675781 63.273438 50.082031 61.65625 50.523438 60.269531 C 50.996094 58.785156 51.515625 57.535156 52.109375 56.453125 C 52.726562 55.339844 53.421875 54.402344 54.242188 53.582031 C 55.0625 52.761719 56.003906 52.0625 57.117188 51.449219 C 58.199219 50.851562 59.445312 50.332031 60.929688 49.859375 C 62.316406 49.417969 63.9375 49.011719 65.882812 48.613281 C 67.589844 48.265625 69.589844 47.917969 72.167969 47.515625 L 72.175781 47.515625 Z M 72.167969 47.515625 " fill-opacity="1" fill-rule="nonzero"/></g></svg>