<svg xmlns="http://www.w3.org/2000/svg" xmlns:xlink="http://www.w3.org/1999/xlink" width="100" zoomAndPan="magnify" viewBox="0 0 75 74.999997" height="100" preserveAspectRatio="xMidYMid meet" version="1.0"><defs><clipPath id="dee067f954"><path d="M 12.457031 10.921875 L 68.707031 10.921875 L 68.707031 67.171875 L 12.457031 67.171875 Z M 12.457031 10.921875 " clip-rule="nonzero"/></clipPath><clipPath id="9b9dcde02e"><path d="M 6.609375 8.144531 L 54.609375 8.144531 L 54.609375 56.144531 L 6.609375 56.144531 Z M 6.609375 8.144531 " clip-rule="nonzero"/></clipPath></defs><g clip-path="url(#dee067f954)"><path fill="#5e17eb" d="M 68.695312 39.042969 C 65.671875 38.574219 63.332031 38.164062 61.328125 37.757812 C 59.046875 37.292969 57.152344 36.816406 55.527344 36.296875 C 53.785156 35.746094 52.324219 35.136719 51.058594 34.4375 C 49.75 33.714844 48.648438 32.898438 47.691406 31.9375 C 46.730469 30.976562 45.910156 29.875 45.191406 28.570312 C 44.492188 27.300781 43.882812 25.839844 43.328125 24.101562 C 42.8125 22.476562 42.335938 20.578125 41.871094 18.296875 C 41.460938 16.296875 41.054688 13.953125 40.582031 10.929688 L 40.582031 10.921875 L 40.582031 10.929688 C 40.109375 13.953125 39.703125 16.292969 39.292969 18.296875 C 38.828125 20.578125 38.351562 22.476562 37.835938 24.101562 C 37.28125 25.839844 36.671875 27.300781 35.972656 28.570312 C 35.253906 29.875 34.433594 30.976562 33.472656 31.9375 C 32.515625 32.898438 31.414062 33.714844 30.105469 34.4375 C 28.839844 35.136719 27.378906 35.746094 25.636719 36.296875 C 24.011719 36.816406 22.117188 37.292969 19.835938 37.757812 C 17.832031 38.164062 15.492188 38.574219 12.46875 39.042969 L 12.457031 39.042969 L 12.46875 39.046875 C 15.492188 39.515625 17.832031 39.925781 19.835938 40.332031 C 22.117188 40.796875 24.011719 41.273438 25.636719 41.789062 C 27.378906 42.34375 28.839844 42.953125 30.105469 43.652344 C 31.410156 44.375 32.511719 45.191406 33.472656 46.152344 C 34.433594 47.113281 35.253906 48.214844 35.972656 49.519531 C 36.671875 50.789062 37.28125 52.25 37.835938 53.988281 C 38.351562 55.613281 38.828125 57.511719 39.292969 59.792969 C 39.703125 61.792969 40.109375 64.136719 40.582031 67.160156 L 40.582031 67.167969 L 40.582031 67.160156 C 41.054688 64.136719 41.460938 61.792969 41.871094 59.792969 C 42.335938 57.511719 42.8125 55.613281 43.328125 53.988281 C 43.882812 52.25 44.492188 50.789062 45.191406 49.519531 C 45.910156 48.214844 46.730469 47.113281 47.691406 46.152344 C 48.648438 45.191406 49.75 44.375 51.058594 43.652344 C 52.324219 42.953125 53.785156 42.34375 55.527344 41.789062 C 57.152344 41.273438 59.046875 40.796875 61.328125 40.332031 C 63.332031 39.925781 65.671875 39.515625 68.695312 39.046875 L 68.707031 39.042969 Z M 68.695312 39.042969 " fill-opacity="1" fill-rule="nonzero"/></g><g clip-path="url(#9b9dcde02e)"><path fill="#8c52ff" d="M 54.597656 32.144531 C 52.019531 31.742188 50.019531 31.394531 48.3125 31.046875 C 46.363281 30.648438 44.746094 30.242188 43.359375 29.800781 C 41.875 29.328125 40.628906 28.808594 39.546875 28.210938 C 38.433594 27.597656 37.492188 26.898438 36.671875 26.078125 C 35.851562 25.261719 35.15625 24.320312 34.539062 23.207031 C 33.941406 22.125 33.421875 20.875 32.949219 19.390625 C 32.511719 18.007812 32.101562 16.386719 31.707031 14.441406 C 31.359375 12.730469 31.007812 10.734375 30.609375 8.152344 L 30.609375 8.144531 L 30.605469 8.152344 C 30.203125 10.734375 29.855469 12.730469 29.507812 14.441406 C 29.113281 16.386719 28.703125 18.007812 28.261719 19.390625 C 27.792969 20.875 27.269531 22.125 26.675781 23.207031 C 26.058594 24.320312 25.363281 25.257812 24.542969 26.078125 C 23.722656 26.898438 22.78125 27.597656 21.667969 28.210938 C 20.585938 28.808594 19.339844 29.328125 17.855469 29.800781 C 16.46875 30.242188 14.847656 30.648438 12.902344 31.046875 C 11.195312 31.394531 9.195312 31.742188 6.617188 32.144531 L 6.609375 32.144531 L 6.617188 32.144531 C 9.195312 32.546875 11.195312 32.894531 12.902344 33.242188 C 14.847656 33.640625 16.46875 34.046875 17.855469 34.488281 C 19.339844 34.960938 20.585938 35.480469 21.667969 36.078125 C 22.78125 36.691406 23.722656 37.390625 24.542969 38.210938 C 25.363281 39.03125 26.058594 39.96875 26.675781 41.082031 C 27.273438 42.164062 27.792969 43.414062 28.261719 44.898438 C 28.703125 46.28125 29.113281 47.902344 29.507812 49.847656 C 29.855469 51.558594 30.203125 53.554688 30.605469 56.136719 L 30.609375 56.144531 L 30.609375 56.136719 C 31.007812 53.554688 31.359375 51.558594 31.707031 49.847656 C 32.101562 47.902344 32.511719 46.28125 32.949219 44.898438 C 33.421875 43.414062 33.941406 42.164062 34.539062 41.082031 C 35.15625 39.96875 35.851562 39.03125 36.671875 38.210938 C 37.492188 37.390625 38.433594 36.691406 39.546875 36.078125 C 40.628906 35.480469 41.875 34.960938 43.359375 34.488281 C 44.746094 34.046875 46.367188 33.640625 48.3125 33.242188 C 50.019531 32.894531 52.019531 32.546875 54.597656 32.144531 L 54.605469 32.144531 Z M 54.597656 32.144531 " fill-opacity="1" fill-rule="nonzero"/></g></svg>